<svg width="205" height="40" viewBox="0 0 205 40" fill="none" xmlns="http://www.w3.org/2000/svg">
<path d="M0.304 39V37.656C2.608 37.656 3.952 37.2293 4.336 36.376V4.184C3.952 3.33067 2.608 2.904 0.304 2.904V1.56H17.328C22.576 1.56 26.5653 2.56266 29.296 4.568C32.0693 6.57333 33.456 8.81333 33.456 11.288C33.456 14.488 32.176 17.0693 29.616 19.032C27.056 20.9947 23.216 21.976 18.096 21.976H12.464V36.376C12.848 37.2293 14.192 37.656 16.496 37.656V39H0.304ZM12.464 3.736V19.8H15.856C19.1413 19.8 21.4453 19.16 22.768 17.88C24.1333 16.5573 24.816 14.3813 24.816 11.352C24.816 6.27467 21.5733 3.736 15.088 3.736H12.464ZM36.179 39V37.656C38.483 37.656 39.827 37.2293 40.211 36.376V4.184C39.827 3.33067 38.483 2.904 36.179 2.904V1.56H52.371V2.904C50.067 2.904 48.723 3.33067 48.339 4.184V36.376C48.723 37.2293 50.067 37.656 52.371 37.656V39H36.179ZM76.5875 3.096C73.0035 3.096 70.2302 4.568 68.2675 7.512C66.3475 10.456 65.3875 14.424 65.3875 19.416C65.3875 25.2187 66.4328 29.6773 68.5235 32.792C70.6142 35.9067 73.3875 37.464 76.8435 37.464C78.9342 37.464 80.8328 36.76 82.5395 35.352C84.2888 33.9013 85.4835 32.3013 86.1235 30.552L88.7475 31.32C87.7662 33.6667 86.2088 35.6507 84.0755 37.272C81.9848 38.8507 79.1475 39.64 75.5635 39.64C69.8462 39.64 65.2382 37.784 61.7395 34.072C58.2408 30.36 56.4915 25.944 56.4915 20.824C56.4915 14.8933 58.4968 10.0933 62.5075 6.424C66.5182 2.75467 71.1902 0.919998 76.5235 0.919998C77.7608 0.919998 79.2968 1.24 81.1315 1.88C82.9662 2.52 84.0115 2.84 84.2675 2.84C84.7795 2.84 85.0355 2.41333 85.0355 1.56H86.5075L87.0195 10.584H85.6115C85.3555 8.83467 84.2462 7.14933 82.2835 5.528C80.3208 3.90666 78.4222 3.096 76.5875 3.096ZM92.429 39V37.656C94.733 37.656 96.077 37.2293 96.461 36.376V4.184C96.077 3.33067 94.733 2.904 92.429 2.904V1.56H108.493V2.904C106.189 2.904 104.845 3.33067 104.461 4.184V36.376C104.845 37.2293 106.189 37.656 108.493 37.656V39H92.429ZM117.005 39V37.656C118.029 37.656 118.818 37.592 119.373 37.464L104.781 18.904L120.461 3.352C119.864 3.05333 118.776 2.904 117.197 2.904V1.56H127.245V2.904C126.861 2.904 126.52 2.92533 126.221 2.968C125.922 2.968 125.645 3.01066 125.389 3.096C125.133 3.18133 124.92 3.24533 124.749 3.288C124.578 3.33066 124.408 3.416 124.237 3.544C124.066 3.672 123.938 3.75733 123.853 3.8C123.81 3.84267 123.704 3.94933 123.533 4.12L123.277 4.376L111.629 15.832L127.693 36.632C128.248 37.3147 129.592 37.656 131.725 37.656V39H117.005ZM152.394 37.464C155.167 37.464 157.386 36.2907 159.05 33.944C160.714 31.5973 161.546 28.4187 161.546 24.408V4.184C161.162 3.33067 159.818 2.904 157.514 2.904V1.56H167.754V2.904C165.45 2.904 164.106 3.33067 163.722 4.184V23.128C163.722 28.6747 162.485 32.8133 160.01 35.544C157.578 38.2747 154.506 39.64 150.794 39.64C140.554 39.64 135.434 34.136 135.434 23.128V4.184C135.05 3.33067 133.706 2.904 131.402 2.904V1.56H147.594V2.904C145.29 2.904 143.946 3.33067 143.562 4.184V24.024C143.562 28.376 144.309 31.704 145.802 34.008C147.295 36.312 149.493 37.464 152.394 37.464ZM171.179 39V37.656C173.483 37.656 174.827 37.2293 175.211 36.376V4.184C174.827 3.33067 173.483 2.904 171.179 2.904V1.56H188.203C193.451 1.56 197.44 2.56266 200.171 4.568C202.944 6.57333 204.331 8.81333 204.331 11.288C204.331 14.488 203.051 17.0693 200.491 19.032C197.931 20.9947 194.091 21.976 188.971 21.976H183.339V36.376C183.723 37.2293 185.067 37.656 187.371 37.656V39H171.179ZM183.339 3.736V19.8H186.731C190.016 19.8 192.32 19.16 193.643 17.88C195.008 16.5573 195.691 14.3813 195.691 11.352C195.691 6.27467 192.448 3.736 185.963 3.736H183.339Z" fill="url(#paint0_linear_87_5)"/>
<defs>
<linearGradient id="paint0_linear_87_5" x1="-2" y1="20.5" x2="206" y2="20.5" gradientUnits="userSpaceOnUse">
<stop offset="0.463484" stop-color="white"/>
<stop offset="1" stop-color="#525252"/>
</linearGradient>
</defs>
</svg>
