<svg width="409" height="79" viewBox="0 0 409 79" fill="none" xmlns="http://www.w3.org/2000/svg">
<path d="M0.608 77V74.312C5.216 74.312 7.904 73.4587 8.672 71.752V7.368C7.904 5.66133 5.216 4.808 0.608 4.808V2.12H34.656C45.152 2.12 53.1307 4.12533 58.592 8.13599C64.1387 12.1467 66.912 16.6267 66.912 21.576C66.912 27.976 64.352 33.1387 59.232 37.064C54.112 40.9893 46.432 42.952 36.192 42.952H24.928V71.752C25.696 73.4587 28.384 74.312 32.992 74.312V77H0.608ZM24.928 6.472V38.6H31.712C38.2827 38.6 42.8907 37.32 45.536 34.76C48.2667 32.1147 49.632 27.7627 49.632 21.704C49.632 11.5493 43.1467 6.472 30.176 6.472H24.928ZM72.358 77V74.312C76.966 74.312 79.654 73.4587 80.422 71.752V7.368C79.654 5.66133 76.966 4.808 72.358 4.808V2.12H104.742V4.808C100.134 4.808 97.446 5.66133 96.678 7.368V71.752C97.446 73.4587 100.134 74.312 104.742 74.312V77H72.358ZM153.175 5.19199C146.007 5.19199 140.46 8.136 136.535 14.024C132.695 19.912 130.775 27.848 130.775 37.832C130.775 49.4373 132.866 58.3547 137.047 64.584C141.228 70.8133 146.775 73.928 153.687 73.928C157.868 73.928 161.666 72.52 165.079 69.704C168.578 66.8027 170.967 63.6027 172.247 60.104L177.495 61.64C175.532 66.3333 172.418 70.3013 168.151 73.544C163.97 76.7013 158.295 78.28 151.127 78.28C139.692 78.28 130.476 74.568 123.479 67.144C116.482 59.72 112.983 50.888 112.983 40.648C112.983 28.7867 116.994 19.1867 125.015 11.848C133.036 4.50933 142.38 0.839996 153.047 0.839996C155.522 0.839996 158.594 1.48 162.263 2.75999C165.932 4.04 168.023 4.68 168.535 4.68C169.559 4.68 170.071 3.82667 170.071 2.12H173.015L174.039 20.168H171.223C170.711 16.6693 168.492 13.2987 164.567 10.056C160.642 6.81333 156.844 5.19199 153.175 5.19199ZM184.858 77V74.312C189.466 74.312 192.154 73.4587 192.922 71.752V7.368C192.154 5.66133 189.466 4.808 184.858 4.808V2.12H216.986V4.808C212.378 4.808 209.69 5.66133 208.922 7.368V71.752C209.69 73.4587 212.378 74.312 216.986 74.312V77H184.858ZM234.01 77V74.312C236.058 74.312 237.637 74.184 238.746 73.928L209.562 36.808L240.922 5.70399C239.727 5.10666 237.551 4.808 234.394 4.808V2.12H254.49V4.808C253.722 4.808 253.039 4.85066 252.442 4.936C251.845 4.936 251.29 5.02133 250.778 5.19199C250.266 5.36266 249.839 5.49066 249.498 5.576C249.157 5.66133 248.815 5.832 248.474 6.088C248.133 6.344 247.877 6.51467 247.706 6.6C247.621 6.68533 247.407 6.89866 247.066 7.24L246.554 7.752L223.258 30.664L255.386 72.264C256.495 73.6293 259.183 74.312 263.45 74.312V77H234.01ZM304.788 73.928C310.335 73.928 314.772 71.5813 318.1 66.888C321.428 62.1947 323.092 55.8373 323.092 47.816V7.368C322.324 5.66133 319.636 4.808 315.028 4.808V2.12H335.508V4.808C330.9 4.808 328.212 5.66133 327.444 7.368V45.256C327.444 56.3493 324.969 64.6267 320.02 70.088C315.156 75.5493 309.012 78.28 301.588 78.28C281.108 78.28 270.868 67.272 270.868 45.256V7.368C270.1 5.66133 267.412 4.808 262.804 4.808V2.12H295.188V4.808C290.58 4.808 287.892 5.66133 287.124 7.368V47.048C287.124 55.752 288.617 62.408 291.604 67.016C294.591 71.624 298.985 73.928 304.788 73.928ZM342.358 77V74.312C346.966 74.312 349.654 73.4587 350.422 71.752V7.368C349.654 5.66133 346.966 4.808 342.358 4.808V2.12H376.406C386.902 2.12 394.881 4.12533 400.342 8.13599C405.889 12.1467 408.662 16.6267 408.662 21.576C408.662 27.976 406.102 33.1387 400.982 37.064C395.862 40.9893 388.182 42.952 377.942 42.952H366.678V71.752C367.446 73.4587 370.134 74.312 374.742 74.312V77H342.358ZM366.678 6.472V38.6H373.462C380.033 38.6 384.641 37.32 387.286 34.76C390.017 32.1147 391.382 27.7627 391.382 21.704C391.382 11.5493 384.897 6.472 371.926 6.472H366.678Z" fill="url(#paint0_linear_10_3)"/>
<defs>
<linearGradient id="paint0_linear_10_3" x1="-4" y1="39.5" x2="411" y2="39.5" gradientUnits="userSpaceOnUse">
<stop offset="0.463484" stop-color="white"/>
<stop offset="1" stop-color="#525252"/>
</linearGradient>
</defs>
</svg>
